{
	"asset":{
		"generator":"Khronos glTF Blender I/O v3.6.28",
		"version":"2.0"
	},
	"scene":0,
	"scenes":[
		{
			"name":"Scene",
			"nodes":[
				0
			]
		}
	],
	"nodes":[
		{
			"mesh":0,
			"name":"CSU Low"
		}
	],
	"materials":[
		{
			"doubleSided":true,
			"name":"color",
			"pbrMetallicRoughness":{
				"baseColorFactor":[
					0.5173329710960388,
					0.03927868232131004,
					0.04262852668762207,
					1
				],
				"metallicFactor":0.6850393414497375
			}
		}
	],
	"meshes":[
		{
			"name":"\u041c\u0435\u0448",
			"primitives":[
				{
					"attributes":{
						"POSITION":0,
						"NORMAL":1,
						"TEXCOORD_0":2,
						"TEXCOORD_1":3
					},
					"indices":4,
					"material":0
				}
			]
		}
	],
	"accessors":[
		{
			"bufferView":0,
			"componentType":5126,
			"count":6318,
			"max":[
				0.8124033212661743,
				0.5053161978721619,
				0.027500050142407417
			],
			"min":[
				-0.6761990189552307,
				-0.4902041554450989,
				-0.027942145243287086
			],
			"type":"VEC3"
		},
		{
			"bufferView":1,
			"componentType":5126,
			"count":6318,
			"type":"VEC3"
		},
		{
			"bufferView":2,
			"componentType":5126,
			"count":6318,
			"type":"VEC2"
		},
		{
			"bufferView":3,
			"componentType":5126,
			"count":6318,
			"type":"VEC2"
		},
		{
			"bufferView":4,
			"componentType":5123,
			"count":36672,
			"type":"SCALAR"
		}
	],
	"bufferViews":[
		{
			"buffer":0,
			"byteLength":75816,
			"byteOffset":0,
			"target":34962
		},
		{
			"buffer":0,
			"byteLength":75816,
			"byteOffset":75816,
			"target":34962
		},
		{
			"buffer":0,
			"byteLength":50544,
			"byteOffset":151632,
			"target":34962
		},
		{
			"buffer":0,
			"byteLength":50544,
			"byteOffset":202176,
			"target":34962
		},
		{
			"buffer":0,
			"byteLength":73344,
			"byteOffset":252720,
			"target":34963
		}
	],
	"buffers":[
		{
			"byteLength":326064,
			"uri":"data:application/octet-stream;base64,"
		}
	]
}
