<?xml version="1.0" standalone="no"?>
<!DOCTYPE svg PUBLIC "-//W3C//DTD SVG 20010904//EN"
 "http://www.w3.org/TR/2001/REC-SVG-20010904/DTD/svg10.dtd">
<svg version="1.0" xmlns="http://www.w3.org/2000/svg"
 width="600.000000pt" height="523.000000pt" viewBox="0 0 600.000000 523.000000"
 preserveAspectRatio="xMidYMid meet">

<g transform="translate(0.000000,523.000000) scale(0.100000,-0.100000)"
fill="#D6312C" stroke="none">
<path d="M1880 4391 c0 -6 71 -95 158 -198 541 -644 758 -995 887 -1439 30
-103 65 -296 65 -359 0 -89 8 -105 64 -128 28 -12 71 -32 96 -44 24 -12 46
-21 48 -19 24 24 29 425 8 586 -35 261 -121 550 -258 865 -17 39 -98 211 -180
384 -82 172 -153 324 -158 337 l-10 24 -360 0 c-220 0 -360 -4 -360 -9z"/>
<path d="M2866 4350 c27 -92 92 -275 199 -559 172 -460 221 -623 266 -876 32
-180 32 -503 1 -675 -11 -63 -20 -115 -19 -115 1 -1 26 -21 55 -45 63 -51 52
-59 128 97 149 308 215 655 200 1058 -6 186 -20 334 -80 855 -20 168 -36 306
-36 308 0 1 -164 2 -364 2 l-365 0 15 -50z"/>
<path d="M3824 4353 c37 -284 57 -945 37 -1188 -36 -433 -133 -792 -303 -1116
l-50 -97 48 -60 48 -61 51 47 c409 381 690 918 820 1567 55 277 85 564 85 816
l0 139 -371 0 -371 0 6 -47z"/>
<path d="M4800 4303 c0 -310 -81 -758 -200 -1108 -184 -541 -445 -977 -802
-1341 l-128 -131 34 -70 c19 -39 38 -82 42 -97 3 -14 8 -26 10 -26 8 0 185
108 264 160 323 217 650 541 873 865 268 391 448 836 526 1300 28 165 41 307
41 436 l0 109 -330 0 -330 0 0 -97z"/>
<path d="M1569 3564 c-506 -91 -900 -478 -986 -969 -23 -132 -14 -358 20 -485
73 -279 245 -531 460 -674 149 -99 369 -193 579 -246 332 -85 819 -77 1272 22
270 58 696 212 696 251 0 7 -24 62 -54 122 -99 201 -258 363 -457 465 -53 27
-101 50 -106 50 -5 0 -63 -53 -128 -118 -330 -324 -585 -432 -989 -419 -191 6
-276 25 -412 92 -329 161 -524 508 -475 843 26 178 97 321 221 443 166 165
389 249 627 236 191 -11 348 -90 461 -232 175 -222 162 -516 -32 -711 -120
-121 -246 -169 -421 -162 -120 5 -176 28 -247 100 -181 185 -70 479 187 496
78 5 105 -8 105 -52 0 -33 -19 -46 -70 -46 -62 0 -127 -35 -165 -89 -26 -37
-30 -51 -30 -111 0 -60 4 -74 30 -111 44 -62 101 -89 189 -89 129 1 231 39
320 121 190 175 194 459 8 645 -282 282 -852 123 -1023 -286 -80 -191 -73
-385 21 -575 93 -190 273 -334 490 -392 98 -26 317 -24 433 5 407 101 692 416
737 815 19 165 -10 335 -86 496 -57 121 -112 198 -216 297 -142 136 -310 225
-503 265 -109 23 -340 24 -456 3z"/>
</g>
</svg>
